<svg width="136" height="25" viewBox="0 0 136 25" fill="none" xmlns="http://www.w3.org/2000/svg">
<g clip-path="url(#clip0_5322_7521)">
<path d="M81.3162 4.65691H71.0253C70.8146 4.65691 70.3954 4.70957 70.1886 4.74077C67.0294 5.20296 64.3031 7.86102 63.952 10.9423C63.8916 11.4669 63.9052 11.97 63.9832 12.4478C64.2758 14.7568 66.068 16.4164 68.4998 16.5431C68.7299 16.5665 68.9659 16.5763 69.2058 16.5743H73.0378C73.0378 16.5782 73.0437 16.5821 73.0456 16.5802C73.1782 16.5743 73.3069 16.5763 73.4298 16.5899C74.4088 16.6406 75.1303 17.3076 75.2473 18.2359C75.2785 18.427 75.2844 18.6298 75.261 18.8404C75.1108 20.1587 73.7126 21.2878 72.3377 21.3581C72.2422 21.3639 72.1446 21.3737 72.0413 21.3795H62.0838L61.2862 23.9342C61.2862 23.9342 61.2803 23.944 61.2784 23.9498L61.1204 24.4647L61.0483 24.6967L61.0171 24.8001C61.0015 24.8527 61.0307 24.8937 61.0814 24.8937H72.4489C72.6575 24.8937 73.0788 24.8391 73.2855 24.8079C76.4428 24.3476 79.1691 21.6876 79.5201 18.6083C79.5786 18.0837 79.565 17.5806 79.4889 17.1028C79.1964 14.7958 77.4023 13.1342 74.9704 13.0075C74.713 12.9802 74.4478 12.9724 74.1767 12.9782V12.9743H70.4344C70.4344 12.9743 70.4305 12.9665 70.4266 12.9665C70.294 12.9743 70.1652 12.9704 70.0404 12.9587C69.0634 12.9061 68.3418 12.2411 68.2248 11.3108C68.1936 11.1197 68.1878 10.9169 68.2131 10.7063C68.3633 9.38604 69.5685 8.34856 70.9414 8.27835C71.0389 8.2725 71.1364 8.26275 71.2378 8.2569H80.2787L81.3123 4.94749L81.3299 4.88898L81.365 4.77977L81.3767 4.74272C81.3923 4.69202 81.363 4.65106 81.3123 4.65106" fill="#FEFEFE"/>
<path d="M16.1063 8.19066H15.7222C15.6695 8.19066 15.5934 8.18091 15.5564 8.13995C15.5193 8.099 15.5135 8.04245 15.5408 7.98394V7.97614L16.7304 5.82902C16.8337 5.62815 16.9703 5.43704 17.138 5.26932C17.6002 4.80909 18.1832 4.54386 18.7858 4.47561V4.46976C19.523 4.38785 20.2875 4.3508 21.048 4.36055L32.6827 4.3586L33.9054 0.37833L33.9912 0.0936075C34.0068 0.0429034 33.9776 0 33.9269 0H11.2972L11.2875 0.00780063C9.71372 -0.0136511 8.13409 0.0604549 6.61102 0.232069V0.24377C5.36292 0.382231 4.15578 0.930225 3.2002 1.88385C2.85112 2.23293 2.5703 2.62491 2.35773 3.04224L0.0877493 7.31114L0.0721481 7.34234C-0.0468114 7.62316 -0.0234096 7.89813 0.152105 8.0873C0.331519 8.28036 0.692298 8.32327 0.939968 8.32327H10.8429L6.77094 21.596L6.76118 21.6428C6.55837 22.6101 6.80019 23.3375 7.44764 23.985C8.06584 24.6051 8.87125 24.9074 9.68252 24.9054H17.2686L22.3936 8.19261H16.1024L16.1063 8.19066Z" fill="#FEFEFE"/>
<path d="M81.3162 4.65691H71.0253C70.8146 4.65691 70.3954 4.70957 70.1886 4.74077C67.0294 5.20296 64.3031 7.86102 63.952 10.9423C63.8916 11.4669 63.9052 11.97 63.9832 12.4478C64.2758 14.7568 66.068 16.4164 68.4998 16.5431C68.7299 16.5665 68.9659 16.5763 69.2058 16.5743H73.0378C73.0378 16.5782 73.0437 16.5821 73.0456 16.5802C73.1782 16.5743 73.3069 16.5763 73.4298 16.5899C74.4088 16.6406 75.1303 17.3076 75.2473 18.2359C75.2785 18.427 75.2844 18.6298 75.261 18.8404C75.1108 20.1587 73.7126 21.2878 72.3377 21.3581C72.2422 21.3639 72.1446 21.3737 72.0413 21.3795H62.0838L61.2862 23.9342C61.2862 23.9342 61.2803 23.944 61.2784 23.9498L61.1204 24.4647L61.0483 24.6967L61.0171 24.8001C61.0015 24.8527 61.0307 24.8937 61.0814 24.8937H72.4489C72.6575 24.8937 73.0788 24.8391 73.2855 24.8079C76.4428 24.3476 79.1691 21.6876 79.5201 18.6083C79.5786 18.0837 79.565 17.5806 79.4889 17.1028C79.1964 14.7958 77.4023 13.1342 74.9704 13.0075C74.713 12.9802 74.4478 12.9724 74.1767 12.9782V12.9743H70.4344C70.4344 12.9743 70.4305 12.9665 70.4266 12.9665C70.294 12.9743 70.1652 12.9704 70.0404 12.9587C69.0634 12.9061 68.3418 12.2411 68.2248 11.3108C68.1936 11.1197 68.1878 10.9169 68.2131 10.7063C68.3633 9.38604 69.5685 8.34856 70.9414 8.27835C71.0389 8.2725 71.1364 8.26275 71.2378 8.2569H80.2787L81.3123 4.94749L81.3299 4.88898L81.365 4.77977L81.3767 4.74272C81.3923 4.69202 81.363 4.65106 81.3123 4.65106" fill="#FEFEFE"/>
<path d="M59.2039 14.8563C59.0128 14.7101 58.8061 14.5814 58.5876 14.4663C58.4726 14.4039 58.3536 14.3474 58.2327 14.2947C59.6836 13.3664 60.8303 12.0988 61.156 10.4392C61.2574 9.92245 61.3042 9.2672 61.2262 8.78941C60.9337 6.48042 58.732 4.82084 56.3001 4.69408C56.0407 4.66678 55.5044 4.66093 55.5044 4.66093L45.3422 4.65508C44.0278 4.65508 43.8757 4.59852 43.1463 5.38444C42.9864 5.558 42.8694 5.70426 42.8694 5.70426L27.8278 21.6409C27.8161 21.6507 27.7089 21.7384 27.6348 21.7384C27.5139 21.7384 27.4163 21.6448 27.4124 21.5278L31.4844 8.19071H27.1414L22.3225 23.948C22.3225 23.948 22.3186 23.9519 22.3186 23.9558L22.0554 24.8119C22.0398 24.8645 22.069 24.9055 22.1217 24.9055H30.5561L45.3656 8.25117H54.7712C54.7712 8.25117 55.2041 8.25507 55.3289 8.26872C56.306 8.31942 57.0275 8.98637 57.1465 9.91465C57.1777 10.1077 57.1835 10.3086 57.1582 10.5211C57.008 11.8414 55.2002 12.9686 53.8273 13.0388C53.7298 13.0447 53.6323 13.0525 53.5309 13.0603H50.9976L49.9016 16.5764H54.1803C54.1803 16.5764 54.1861 16.5842 54.19 16.5822C54.3227 16.5764 54.4514 16.5803 54.5762 16.592C55.5532 16.6427 56.1929 17.3096 56.3099 18.2379C56.3411 18.429 56.345 18.6318 56.3235 18.8444C56.1734 20.1627 54.7751 21.2919 53.4002 21.3621C53.3047 21.3679 53.2072 21.3777 53.1038 21.3835H46.9296L50.3541 10.2345H45.6405L41.1942 24.7183L41.1669 24.806C41.1513 24.8567 41.1805 24.8997 41.2312 24.8997H53.5933C53.6323 24.8997 54.4436 24.8938 54.5976 24.8879C58.0748 24.7241 61.0136 22.1012 61.1619 19.0316C61.1853 18.5421 61.1346 18.0702 61.0214 17.6236C60.7777 16.4945 60.1283 15.5311 59.2058 14.8524" fill="#FEFEFE"/>
<path d="M136.001 13.6396C136.001 11.5042 134.251 9.76469 132.102 9.76469H129.403C128.641 9.76469 128.023 9.14844 128.023 8.39178C128.023 7.63512 128.643 7.01887 129.403 7.01887H135.006L135.763 4.67283H129.403C127.34 4.67283 125.661 6.34021 125.661 8.39178C125.661 10.4433 127.34 12.1107 129.403 12.1107H132.102C132.951 12.1107 133.639 12.7972 133.639 13.6396C133.639 14.4821 132.949 15.1686 132.102 15.1686H126.176L125.675 17.5146H132.102C134.251 17.5146 136.001 15.777 136.001 13.6396Z" fill="#FEFEFE"/>
<path d="M109.656 6.98961V4.65723H100.386V17.499H109.656V15.1666H102.732V12.2609H109.656V9.93045H102.732V6.98961H109.656Z" fill="#FEFEFE"/>
<path d="M97.8315 17.499V4.67283H95.3256V13.8912L91.7236 4.67283H87.9286V17.499H90.4346V8.28062L94.0365 17.499H97.8315Z" fill="#FEFEFE"/>
<path d="M122.618 4.67712L121.007 12.2223L119.396 4.67712H116.839L115.228 12.2223L113.616 4.67712H111.334L114.076 17.515H116.379L118.117 9.3809L119.854 17.515H122.159L124.899 4.67712H122.618Z" fill="#FEFEFE"/>
<path d="M134.705 24.9011L87.8974 24.8894V20.8525L135.971 20.8642L134.705 24.9011Z" fill="#FEFEFE"/>
</g>
<defs>
<clipPath id="clip0_5322_7521">
<rect width="136" height="24.9074" fill="white"/>
</clipPath>
</defs>
</svg>
